REM DIRINDEX 1\2\4\18,1\2\4\19,1\2\5\20,1\2\5\21,1\2\6\22,1\2\6\23,1\2\7\24,1\2\7\25,1\2\8\26,1\2\8\27,1\2\9\28,1\2\9\29,1\2\10\30,1\3\11\31,1\3\11\32,1\3\11\33,1\3\11\34,1\3\11\35,1\3\12\36,1\3\12\37,1\3\12\38,1\3\12\39,1\3\12\40,1\3\13\41,1\3\13\42,1\3\13\43,1\3\13\44,1\3\13\45,1\3\14\46,1\3\14\47,1\3\14\48,1\3\14\49,1\3\15\50,1\3\15\51,1\3\15\52,1\3\15\53,1\3\15\54,1\3\16\55,1\3\16\56,1\3\16\57,1\3\16\58,1\3\16\59,1\3\17\60,1\3\17\61
REM DIRNAME "folder01","folder02","folder03","folder04","folder05","folder06","folder07","folder08","folder09","folder10","folder11","folder12","folder13","folder14","folder15","folder16","folder17","folder18","folder19","folder20","folder21","folder22","folder23","folder24","folder25","folder26","folder27","folder28","folder29","folder30","folder31","folder32","folder33","folder34","folder35","folder36","folder37","folder38","folder39","folder40","folder41","folder42","folder43","folder44","folder45","folder46","folder47","folder48","folder49","folder50","folder51","folder52","folder53","folder54","folder55","folder56","folder57","folder58","folder59","folder60","folder61"
TITLE ""
FILE "TOEIC LR Kinnojyukugo_08.mp3" MP3
  TRACK 01 AUDIO
    TITLE "0:"
    INDEX 01 00:00:00
  TRACK 02 AUDIO
    TITLE "24:cjc160_0933"
    INDEX 01 00:00:12
  TRACK 03 AUDIO
    TITLE "0:"
    INDEX 01 00:01:12
  TRACK 04 AUDIO
    TITLE "25:cjc160_0934"
    INDEX 01 00:01:63
  TRACK 05 AUDIO
    TITLE "0:"
    INDEX 01 00:03:22
  TRACK 06 AUDIO
    TITLE "25:cjc160_0935"
    INDEX 01 00:03:69
  TRACK 07 AUDIO
    TITLE "0:"
    INDEX 01 00:05:19
  TRACK 08 AUDIO
    TITLE "25:cjc160_0936"
    INDEX 01 00:05:70
  TRACK 09 AUDIO
    TITLE "0:"
    INDEX 01 00:07:22
  TRACK 10 AUDIO
    TITLE "24:cjc160_0937"
    INDEX 01 00:08:37
  TRACK 11 AUDIO
    TITLE "0:"
    INDEX 01 00:09:46
  TRACK 12 AUDIO
    TITLE "25:cjc160_0938"
    INDEX 01 00:10:20
  TRACK 13 AUDIO
    TITLE "0:"
    INDEX 01 00:11:51
  TRACK 14 AUDIO
    TITLE "25:cjc160_0939"
    INDEX 01 00:12:25
  TRACK 15 AUDIO
    TITLE "0:"
    INDEX 01 00:13:52
  TRACK 16 AUDIO
    TITLE "25:cjc160_0940"
    INDEX 01 00:14:28
  TRACK 17 AUDIO
    TITLE "0:"
    INDEX 01 00:16:11
  TRACK 18 AUDIO
    TITLE "24:cjc160_0941"
    INDEX 01 00:17:24
  TRACK 19 AUDIO
    TITLE "0:"
    INDEX 01 00:18:36
  TRACK 20 AUDIO
    TITLE "25:cjc160_0942"
    INDEX 01 00:19:10
  TRACK 21 AUDIO
    TITLE "0:"
    INDEX 01 00:20:48
  TRACK 22 AUDIO
    TITLE "25:cjc160_0943"
    INDEX 01 00:21:22
  TRACK 23 AUDIO
    TITLE "0:"
    INDEX 01 00:23:15
  TRACK 24 AUDIO
    TITLE "25:cjc160_0944"
    INDEX 01 00:23:64
  TRACK 25 AUDIO
    TITLE "0:"
    INDEX 01 00:25:10
  TRACK 26 AUDIO
    TITLE "24:cjc160_0945"
    INDEX 01 00:26:27
  TRACK 27 AUDIO
    TITLE "0:"
    INDEX 01 00:27:31
  TRACK 28 AUDIO
    TITLE "25:cjc160_0946"
    INDEX 01 00:28:05
  TRACK 29 AUDIO
    TITLE "0:"
    INDEX 01 00:29:41
  TRACK 30 AUDIO
    TITLE "25:cjc160_0947"
    INDEX 01 00:30:13
  TRACK 31 AUDIO
    TITLE "0:"
    INDEX 01 00:31:42
  TRACK 32 AUDIO
    TITLE "25:cjc160_0948"
    INDEX 01 00:32:14
  TRACK 33 AUDIO
    TITLE "0:"
    INDEX 01 00:33:51
  TRACK 34 AUDIO
    TITLE "24:cjc160_0949"
    INDEX 01 00:34:62
  TRACK 35 AUDIO
    TITLE "0:"
    INDEX 01 00:35:64
  TRACK 36 AUDIO
    TITLE "25:cjc160_0950"
    INDEX 01 00:36:39
  TRACK 37 AUDIO
    TITLE "0:"
    INDEX 01 00:38:21
  TRACK 38 AUDIO
    TITLE "25:cjc160_0951"
    INDEX 01 00:38:64
  TRACK 39 AUDIO
    TITLE "0:"
    INDEX 01 00:40:18
  TRACK 40 AUDIO
    TITLE "25:cjc160_0952"
    INDEX 01 00:40:67
  TRACK 41 AUDIO
    TITLE "0:"
    INDEX 01 00:42:26
  TRACK 42 AUDIO
    TITLE "24:cjc160_0953"
    INDEX 01 00:43:40
  TRACK 43 AUDIO
    TITLE "0:"
    INDEX 01 00:44:37
  TRACK 44 AUDIO
    TITLE "25:cjc160_0954"
    INDEX 01 00:45:13
  TRACK 45 AUDIO
    TITLE "0:"
    INDEX 01 00:46:38
  TRACK 46 AUDIO
    TITLE "25:cjc160_0955"
    INDEX 01 00:47:10
  TRACK 47 AUDIO
    TITLE "0:"
    INDEX 01 00:48:66
  TRACK 48 AUDIO
    TITLE "25:cjc160_0956"
    INDEX 01 00:49:42
  TRACK 49 AUDIO
    TITLE "0:"
    INDEX 01 00:51:45
  TRACK 50 AUDIO
    TITLE "24:cjc160_0957"
    INDEX 01 00:52:58
  TRACK 51 AUDIO
    TITLE "0:"
    INDEX 01 00:53:67
  TRACK 52 AUDIO
    TITLE "25:cjc160_0958"
    INDEX 01 00:54:41
  TRACK 53 AUDIO
    TITLE "0:"
    INDEX 01 00:56:15
  TRACK 54 AUDIO
    TITLE "25:cjc160_0959"
    INDEX 01 00:56:66
  TRACK 55 AUDIO
    TITLE "0:"
    INDEX 01 00:58:39
  TRACK 56 AUDIO
    TITLE "25:cjc160_0960"
    INDEX 01 00:59:15
  TRACK 57 AUDIO
    TITLE "0:"
    INDEX 01 01:00:58
  TRACK 58 AUDIO
    TITLE "24:cjc160_0961"
    INDEX 01 01:01:71
  TRACK 59 AUDIO
    TITLE "0:"
    INDEX 01 01:03:09
  TRACK 60 AUDIO
    TITLE "25:cjc160_0962"
    INDEX 01 01:03:58
  TRACK 61 AUDIO
    TITLE "0:"
    INDEX 01 01:05:35
  TRACK 62 AUDIO
    TITLE "25:cjc160_0963"
    INDEX 01 01:06:03
  TRACK 63 AUDIO
    TITLE "0:"
    INDEX 01 01:07:46
  TRACK 64 AUDIO
    TITLE "25:cjc160_0964"
    INDEX 01 01:08:20
  TRACK 65 AUDIO
    TITLE "0:"
    INDEX 01 01:09:68
  TRACK 66 AUDIO
    TITLE "24:cjc160_0965"
    INDEX 01 01:11:04
  TRACK 67 AUDIO
    TITLE "0:"
    INDEX 01 01:12:18
  TRACK 68 AUDIO
    TITLE "25:cjc160_0966"
    INDEX 01 01:12:69
  TRACK 69 AUDIO
    TITLE "0:"
    INDEX 01 01:14:46
  TRACK 70 AUDIO
    TITLE "25:cjc160_0967"
    INDEX 01 01:15:20
  TRACK 71 AUDIO
    TITLE "0:"
    INDEX 01 01:16:62
  TRACK 72 AUDIO
    TITLE "25:cjc160_0968"
    INDEX 01 01:17:38
  TRACK 73 AUDIO
    TITLE "0:"
    INDEX 01 01:19:12
  TRACK 74 AUDIO
    TITLE "24:cjc160_0969"
    INDEX 01 01:20:25
  TRACK 75 AUDIO
    TITLE "0:"
    INDEX 01 01:21:34
  TRACK 76 AUDIO
    TITLE "25:cjc160_0970"
    INDEX 01 01:22:10
  TRACK 77 AUDIO
    TITLE "0:"
    INDEX 01 01:23:51
  TRACK 78 AUDIO
    TITLE "25:cjc160_0971"
    INDEX 01 01:24:25
  TRACK 79 AUDIO
    TITLE "0:"
    INDEX 01 01:26:02
  TRACK 80 AUDIO
    TITLE "25:cjc160_0972"
    INDEX 01 01:26:53
  TRACK 81 AUDIO
    TITLE "0:"
    INDEX 01 01:28:19
  TRACK 82 AUDIO
    TITLE "24:cjc160_0973"
    INDEX 01 01:29:30
  TRACK 83 AUDIO
    TITLE "0:"
    INDEX 01 01:30:35
  TRACK 84 AUDIO
    TITLE "25:cjc160_0974"
    INDEX 01 01:31:09
  TRACK 85 AUDIO
    TITLE "0:"
    INDEX 01 01:32:48
  TRACK 86 AUDIO
    TITLE "25:cjc160_0975"
    INDEX 01 01:33:26
  TRACK 87 AUDIO
    TITLE "0:"
    INDEX 01 01:34:58
  TRACK 88 AUDIO
    TITLE "25:cjc160_0976"
    INDEX 01 01:35:34
  TRACK 89 AUDIO
    TITLE "0:"
    INDEX 01 01:36:61
  TRACK 90 AUDIO
    TITLE "24:cjc160_0977"
    INDEX 01 01:37:74
  TRACK 91 AUDIO
    TITLE "0:"
    INDEX 01 01:39:05
  TRACK 92 AUDIO
    TITLE "25:cjc160_0978"
    INDEX 01 01:39:58
  TRACK 93 AUDIO
    TITLE "0:"
    INDEX 01 01:41:41
  TRACK 94 AUDIO
    TITLE "25:cjc160_0979"
    INDEX 01 01:42:19
  TRACK 95 AUDIO
    TITLE "0:"
    INDEX 01 01:43:59
  TRACK 96 AUDIO
    TITLE "25:cjc160_0980"
    INDEX 01 01:44:35
  TRACK 97 AUDIO
    TITLE "0:"
    INDEX 01 01:45:70
  TRACK 98 AUDIO
    TITLE "24:cjc160_0981"
    INDEX 01 01:47:08
  TRACK 99 AUDIO
    TITLE "0:"
    INDEX 01 01:48:10
  TRACK 100 AUDIO
    TITLE "25:cjc160_0982"
    INDEX 01 01:48:57
  TRACK 101 AUDIO
    TITLE "0:"
    INDEX 01 01:50:24
  TRACK 102 AUDIO
    TITLE "25:cjc160_0983"
    INDEX 01 01:50:75
  TRACK 103 AUDIO
    TITLE "0:"
    INDEX 01 01:52:45
  TRACK 104 AUDIO
    TITLE "25:cjc160_0984"
    INDEX 01 01:53:21
  TRACK 105 AUDIO
    TITLE "0:"
    INDEX 01 01:54:51
  TRACK 106 AUDIO
    TITLE "24:cjc160_0985"
    INDEX 01 01:55:66
  TRACK 107 AUDIO
    TITLE "0:"
    INDEX 01 01:56:74
  TRACK 108 AUDIO
    TITLE "25:cjc160_0986"
    INDEX 01 01:57:52
  TRACK 109 AUDIO
    TITLE "0:"
    INDEX 01 01:59:13
  TRACK 110 AUDIO
    TITLE "25:cjc160_0987"
    INDEX 01 01:59:62
  TRACK 111 AUDIO
    TITLE "0:"
    INDEX 01 02:01:34
  TRACK 112 AUDIO
    TITLE "25:cjc160_0988"
    INDEX 01 02:02:08
  TRACK 113 AUDIO
    TITLE "0:"
    INDEX 01 02:03:56
  TRACK 114 AUDIO
    TITLE "24:cjc160_0989"
    INDEX 01 02:04:67
  TRACK 115 AUDIO
    TITLE "0:"
    INDEX 01 02:06:06
  TRACK 116 AUDIO
    TITLE "25:cjc160_0990"
    INDEX 01 02:06:58
  TRACK 117 AUDIO
    TITLE "0:"
    INDEX 01 02:08:28
  TRACK 118 AUDIO
    TITLE "25:cjc160_0991"
    INDEX 01 02:09:02
  TRACK 119 AUDIO
    TITLE "0:"
    INDEX 01 02:10:46
  TRACK 120 AUDIO
    TITLE "25:cjc160_0992"
    INDEX 01 02:11:22
  TRACK 121 AUDIO
    TITLE "0:"
    INDEX 01 02:13:33
  TRACK 122 AUDIO
    TITLE "24:cjc160_0993"
    INDEX 01 02:14:44
  TRACK 123 AUDIO
    TITLE "0:"
    INDEX 01 02:15:61
  TRACK 124 AUDIO
    TITLE "25:cjc160_0994"
    INDEX 01 02:16:31
  TRACK 125 AUDIO
    TITLE "0:"
    INDEX 01 02:17:72
  TRACK 126 AUDIO
    TITLE "25:cjc160_0995"
    INDEX 01 02:18:50
  TRACK 127 AUDIO
    TITLE "0:"
    INDEX 01 02:20:19
  TRACK 128 AUDIO
    TITLE "25:cjc160_0996"
    INDEX 01 02:20:68
  TRACK 129 AUDIO
    TITLE "0:"
    INDEX 01 02:23:08
  TRACK 130 AUDIO
    TITLE "24:cjc160_0997"
    INDEX 01 02:24:27
  TRACK 131 AUDIO
    TITLE "0:"
    INDEX 01 02:25:32
  TRACK 132 AUDIO
    TITLE "25:cjc160_0998"
    INDEX 01 02:26:10
  TRACK 133 AUDIO
    TITLE "0:"
    INDEX 01 02:27:45
  TRACK 134 AUDIO
    TITLE "25:cjc160_0999"
    INDEX 01 02:28:21
  TRACK 135 AUDIO
    TITLE "0:"
    INDEX 01 02:29:61
  TRACK 136 AUDIO
    TITLE "25:cjc160_1000"
    INDEX 01 02:30:43
  TRACK 137 AUDIO
    TITLE "0:"
    INDEX 01 02:32:15
  TRACK 138 AUDIO
    TITLE "24:cjc160_1001"
    INDEX 01 02:33:30
  TRACK 139 AUDIO
    TITLE "0:"
    INDEX 01 02:34:39
  TRACK 140 AUDIO
    TITLE "25:cjc160_1002"
    INDEX 01 02:35:15
  TRACK 141 AUDIO
    TITLE "0:"
    INDEX 01 02:36:58
  TRACK 142 AUDIO
    TITLE "25:cjc160_1003"
    INDEX 01 02:37:33
  TRACK 143 AUDIO
    TITLE "0:"
    INDEX 01 02:39:11
  TRACK 144 AUDIO
    TITLE "25:cjc160_1004"
    INDEX 01 02:39:60
  TRACK 145 AUDIO
    TITLE "0:"
    INDEX 01 02:41:25
  TRACK 146 AUDIO
    TITLE "24:cjc160_1005"
    INDEX 01 02:42:43
  TRACK 147 AUDIO
    TITLE "0:"
    INDEX 01 02:43:40
  TRACK 148 AUDIO
    TITLE "25:cjc160_1006"
    INDEX 01 02:44:14
  TRACK 149 AUDIO
    TITLE "0:"
    INDEX 01 02:45:58
  TRACK 150 AUDIO
    TITLE "25:cjc160_1007"
    INDEX 01 02:46:32
  TRACK 151 AUDIO
    TITLE "0:"
    INDEX 01 02:47:65
  TRACK 152 AUDIO
    TITLE "25:cjc160_1008"
    INDEX 01 02:48:43
  TRACK 153 AUDIO
    TITLE "0:"
    INDEX 01 02:50:15
  TRACK 154 AUDIO
    TITLE "24:cjc160_1009"
    INDEX 01 02:51:28
  TRACK 155 AUDIO
    TITLE "0:"
    INDEX 01 02:52:31
  TRACK 156 AUDIO
    TITLE "25:cjc160_1010"
    INDEX 01 02:53:05
  TRACK 157 AUDIO
    TITLE "0:"
    INDEX 01 02:54:73
  TRACK 158 AUDIO
    TITLE "25:cjc160_1011"
    INDEX 01 02:55:51
  TRACK 159 AUDIO
    TITLE "0:"
    INDEX 01 02:57:71
  TRACK 160 AUDIO
    TITLE "25:cjc160_1012"
    INDEX 01 02:58:47
  TRACK 161 AUDIO
    TITLE "0:"
    INDEX 01 03:00:23
  TRACK 162 AUDIO
    TITLE "24:cjc160_1013"
    INDEX 01 03:01:36
  TRACK 163 AUDIO
    TITLE "0:"
    INDEX 01 03:02:33
  TRACK 164 AUDIO
    TITLE "25:cjc160_1014"
    INDEX 01 03:03:13
  TRACK 165 AUDIO
    TITLE "0:"
    INDEX 01 03:04:26
  TRACK 166 AUDIO
    TITLE "25:cjc160_1015"
    INDEX 01 03:04:75
  TRACK 167 AUDIO
    TITLE "0:"
    INDEX 01 03:06:47
  TRACK 168 AUDIO
    TITLE "25:cjc160_1016"
    INDEX 01 03:07:19
  TRACK 169 AUDIO
    TITLE "0:"
    INDEX 01 03:08:61
  TRACK 170 AUDIO
    TITLE "24:cjc160_1017"
    INDEX 01 03:10:04
  TRACK 171 AUDIO
    TITLE "0:"
    INDEX 01 03:11:25
  TRACK 172 AUDIO
    TITLE "25:cjc160_1018"
    INDEX 01 03:12:01
  TRACK 173 AUDIO
    TITLE "0:"
    INDEX 01 03:13:57
  TRACK 174 AUDIO
    TITLE "25:cjc160_1019"
    INDEX 01 03:14:33
  TRACK 175 AUDIO
    TITLE "0:"
    INDEX 01 03:15:75
  TRACK 176 AUDIO
    TITLE "25:cjc160_1020"
    INDEX 01 03:16:53
  TRACK 177 AUDIO
    TITLE "0:"
    INDEX 01 03:18:34
  TRACK 178 AUDIO
    TITLE "24:cjc160_1021"
    INDEX 01 03:19:48
  TRACK 179 AUDIO
    TITLE "0:"
    INDEX 01 03:20:51
  TRACK 180 AUDIO
    TITLE "25:cjc160_1022"
    INDEX 01 03:21:25
  TRACK 181 AUDIO
    TITLE "0:"
    INDEX 01 03:22:54
  TRACK 182 AUDIO
    TITLE "25:cjc160_1023"
    INDEX 01 03:23:28
  TRACK 183 AUDIO
    TITLE "0:"
    INDEX 01 03:24:61
  TRACK 184 AUDIO
    TITLE "25:cjc160_1024"
    INDEX 01 03:25:33
  TRACK 185 AUDIO
    TITLE "0:"
    INDEX 01 03:27:14
  TRACK 186 AUDIO
    TITLE "24:cjc160_1025"
    INDEX 01 03:28:25
  TRACK 187 AUDIO
    TITLE "0:"
    INDEX 01 03:29:40
  TRACK 188 AUDIO
    TITLE "25:cjc160_1026"
    INDEX 01 03:30:16
  TRACK 189 AUDIO
    TITLE "0:"
    INDEX 01 03:32:19
  TRACK 190 AUDIO
    TITLE "25:cjc160_1027"
    INDEX 01 03:32:72
  TRACK 191 AUDIO
    TITLE "0:"
    INDEX 01 03:35:07
  TRACK 192 AUDIO
    TITLE "25:cjc160_1028"
    INDEX 01 03:35:58
  TRACK 193 AUDIO
    TITLE "0:"
    INDEX 01 03:37:36
  TRACK 194 AUDIO
    TITLE "24:cjc160_1029"
    INDEX 01 03:38:49
  TRACK 195 AUDIO
    TITLE "0:"
    INDEX 01 03:39:64
  TRACK 196 AUDIO
    TITLE "25:cjc160_1030"
    INDEX 01 03:40:40
  TRACK 197 AUDIO
    TITLE "0:"
    INDEX 01 03:43:38
  TRACK 198 AUDIO
    TITLE "25:cjc160_1031"
    INDEX 01 03:44:16
  TRACK 199 AUDIO
    TITLE "0:"
    INDEX 01 03:46:64
  TRACK 200 AUDIO
    TITLE "25:cjc160_1032"
    INDEX 01 03:47:40
  TRACK 201 AUDIO
    TITLE "0:"
    INDEX 01 03:50:34
  TRACK 202 AUDIO
    TITLE "24:cjc160_1033"
    INDEX 01 03:51:48
  TRACK 203 AUDIO
    TITLE "0:"
    INDEX 01 03:52:59
  TRACK 204 AUDIO
    TITLE "25:cjc160_1034"
    INDEX 01 03:53:35
  TRACK 205 AUDIO
    TITLE "0:"
    INDEX 01 03:54:66
  TRACK 206 AUDIO
    TITLE "25:cjc160_1035"
    INDEX 01 03:55:47
  TRACK 207 AUDIO
    TITLE "0:"
    INDEX 01 03:57:52
  TRACK 208 AUDIO
    TITLE "25:cjc160_1036"
    INDEX 01 03:58:36
  TRACK 209 AUDIO
    TITLE "0:"
    INDEX 01 04:00:19
  TRACK 210 AUDIO
    TITLE "24:cjc160_1037"
    INDEX 01 04:01:32
  TRACK 211 AUDIO
    TITLE "0:"
    INDEX 01 04:02:42
  TRACK 212 AUDIO
    TITLE "25:cjc160_1038"
    INDEX 01 04:03:17
  TRACK 213 AUDIO
    TITLE "0:"
    INDEX 01 04:04:50
  TRACK 214 AUDIO
    TITLE "25:cjc160_1039"
    INDEX 01 04:05:26
  TRACK 215 AUDIO
    TITLE "0:"
    INDEX 01 04:07:13
  TRACK 216 AUDIO
    TITLE "25:cjc160_1040"
    INDEX 01 04:07:62
  TRACK 217 AUDIO
    TITLE "0:"
    INDEX 01 04:09:32
  TRACK 218 AUDIO
    TITLE "24:cjc160_1041"
    INDEX 01 04:10:45
  TRACK 219 AUDIO
    TITLE "0:"
    INDEX 01 04:11:60
  TRACK 220 AUDIO
    TITLE "25:cjc160_1042"
    INDEX 01 04:12:36
  TRACK 221 AUDIO
    TITLE "0:"
    INDEX 01 04:14:11
  TRACK 222 AUDIO
    TITLE "25:cjc160_1043"
    INDEX 01 04:15:01
  TRACK 223 AUDIO
    TITLE "0:"
    INDEX 01 04:16:36
  TRACK 224 AUDIO
    TITLE "25:cjc160_1044"
    INDEX 01 04:17:10
  TRACK 225 AUDIO
    TITLE "0:"
    INDEX 01 04:18:64
  TRACK 226 AUDIO
    TITLE "24:cjc160_1045"
    INDEX 01 04:20:04
  TRACK 227 AUDIO
    TITLE "0:"
    INDEX 01 04:21:13
  TRACK 228 AUDIO
    TITLE "25:cjc160_1046"
    INDEX 01 04:22:03
  TRACK 229 AUDIO
    TITLE "0:"
    INDEX 01 04:23:61
  TRACK 230 AUDIO
    TITLE "25:cjc160_1047"
    INDEX 01 04:24:37
  TRACK 231 AUDIO
    TITLE "0:"
    INDEX 01 04:26:11
  TRACK 232 AUDIO
    TITLE "25:cjc160_1048"
    INDEX 01 04:26:64
  TRACK 233 AUDIO
    TITLE "0:"
    INDEX 01 04:28:25
  TRACK 234 AUDIO
    TITLE "24:cjc160_1049"
    INDEX 01 04:29:52
  TRACK 235 AUDIO
    TITLE "0:"
    INDEX 01 04:30:57
  TRACK 236 AUDIO
    TITLE "25:cjc160_1050"
    INDEX 01 04:31:31
  TRACK 237 AUDIO
    TITLE "0:"
    INDEX 01 04:32:60
  TRACK 238 AUDIO
    TITLE "25:cjc160_1051"
    INDEX 01 04:33:38
  TRACK 239 AUDIO
    TITLE "0:"
    INDEX 01 04:35:06
  TRACK 240 AUDIO
    TITLE "25:cjc160_1052"
    INDEX 01 04:35:55
  TRACK 241 AUDIO
    TITLE "0:"
    INDEX 01 04:37:16
  TRACK 242 AUDIO
    TITLE "24:cjc160_1053"
    INDEX 01 04:38:31
  TRACK 243 AUDIO
    TITLE "0:"
    INDEX 01 04:39:39
  TRACK 244 AUDIO
    TITLE "25:cjc160_1054"
    INDEX 01 04:40:13
  TRACK 245 AUDIO
    TITLE "0:"
    INDEX 01 04:41:36
  TRACK 246 AUDIO
    TITLE "25:cjc160_1055"
    INDEX 01 04:42:10
  TRACK 247 AUDIO
    TITLE "0:"
    INDEX 01 04:43:60
  TRACK 248 AUDIO
    TITLE "25:cjc160_1056"
    INDEX 01 04:44:34
  TRACK 249 AUDIO
    TITLE "0:"
    INDEX 01 04:45:73
  TRACK 250 AUDIO
    TITLE "24:cjc160_1057"
    INDEX 01 04:47:13
  TRACK 251 AUDIO
    TITLE "0:"
    INDEX 01 04:48:20
  TRACK 252 AUDIO
    TITLE "25:cjc160_1058"
    INDEX 01 04:49:02
  TRACK 253 AUDIO
    TITLE "0:"
    INDEX 01 04:50:43
  TRACK 254 AUDIO
    TITLE "25:cjc160_1059"
    INDEX 01 04:51:16
  TRACK 255 AUDIO
    TITLE "0:"
    INDEX 01 04:52:65
  TRACK 256 AUDIO
    TITLE "25:cjc160_1060"
    INDEX 01 04:53:41
  TRACK 257 AUDIO
    TITLE "0:"
    INDEX 01 04:55:06
  TRACK 258 AUDIO
    TITLE "24:cjc160_1061"
    INDEX 01 04:56:20
  TRACK 259 AUDIO
    TITLE "0:"
    INDEX 01 04:57:29
  TRACK 260 AUDIO
    TITLE "25:cjc160_1062"
    INDEX 01 04:58:05
  TRACK 261 AUDIO
    TITLE "0:"
    INDEX 01 04:59:47
  TRACK 262 AUDIO
    TITLE "25:cjc160_1063"
    INDEX 01 05:00:23
  TRACK 263 AUDIO
    TITLE "0:"
    INDEX 01 05:01:72
  TRACK 264 AUDIO
    TITLE "25:cjc160_1064"
    INDEX 01 05:02:48
  TRACK 265 AUDIO
    TITLE "0:"
    INDEX 01 05:04:33
  TRACK 266 AUDIO
    TITLE "24:cjc160_1065"
    INDEX 01 05:05:46
  TRACK 267 AUDIO
    TITLE "0:"
    INDEX 01 05:06:53
  TRACK 268 AUDIO
    TITLE "25:cjc160_1066"
    INDEX 01 05:07:27
  TRACK 269 AUDIO
    TITLE "0:"
    INDEX 01 05:09:12
  TRACK 270 AUDIO
    TITLE "25:cjc160_1067"
    INDEX 01 05:09:63
  TRACK 271 AUDIO
    TITLE "0:"
    INDEX 01 05:11:54
  TRACK 272 AUDIO
    TITLE "25:cjc160_1068"
    INDEX 01 05:12:32
  TRACK 273 AUDIO
    TITLE "0:"
    INDEX 01 05:14:18
  TRACK 274 AUDIO
    TITLE "24:cjc160_1069"
    INDEX 01 05:15:29
  TRACK 275 AUDIO
    TITLE "0:"
    INDEX 01 05:16:40
  TRACK 276 AUDIO
    TITLE "25:cjc160_1070"
    INDEX 01 05:17:16
  TRACK 277 AUDIO
    TITLE "0:"
    INDEX 01 05:18:56
  TRACK 278 AUDIO
    TITLE "25:cjc160_1071"
    INDEX 01 05:19:32
  TRACK 279 AUDIO
    TITLE "0:"
    INDEX 01 05:20:73
  TRACK 280 AUDIO
    TITLE "25:cjc160_1072"
    INDEX 01 05:21:49
  TRACK 281 AUDIO
    TITLE "0:"
    INDEX 01 05:23:15
  TRACK 282 AUDIO
    TITLE "24:cjc160_1073"
    INDEX 01 05:24:28
  TRACK 283 AUDIO
    TITLE "0:"
    INDEX 01 05:25:47
  TRACK 284 AUDIO
    TITLE "25:cjc160_1074"
    INDEX 01 05:26:21
  TRACK 285 AUDIO
    TITLE "0:"
    INDEX 01 05:28:10
  TRACK 286 AUDIO
    TITLE "25:cjc160_1075"
    INDEX 01 05:28:59
  TRACK 287 AUDIO
    TITLE "0:"
    INDEX 01 05:30:30
  TRACK 288 AUDIO
    TITLE "25:cjc160_1076"
    INDEX 01 05:31:10
  TRACK 289 AUDIO
    TITLE "0:"
    INDEX 01 05:32:47
  TRACK 290 AUDIO
    TITLE "24:cjc160_1077"
    INDEX 01 05:33:60
  TRACK 291 AUDIO
    TITLE "0:"
    INDEX 01 05:35:04
  TRACK 292 AUDIO
    TITLE "25:cjc160_1078"
    INDEX 01 05:35:55
  TRACK 293 AUDIO
    TITLE "0:"
    INDEX 01 05:37:40
  TRACK 294 AUDIO
    TITLE "25:cjc160_1079"
    INDEX 01 05:38:14
  TRACK 295 AUDIO
    TITLE "0:"
    INDEX 01 05:39:64
  TRACK 296 AUDIO
    TITLE "25:cjc160_1080"
    INDEX 01 05:40:37
  TRACK 297 AUDIO
    TITLE "0:"
    INDEX 01 05:42:12
  TRACK 298 AUDIO
    TITLE "24:cjc160_1081"
    INDEX 01 05:43:23
  TRACK 299 AUDIO
    TITLE "0:"
    INDEX 01 05:44:26
  TRACK 300 AUDIO
    TITLE "25:cjc160_1082"
    INDEX 01 05:44:75
  TRACK 301 AUDIO
    TITLE "0:"
    INDEX 01 05:46:41
  TRACK 302 AUDIO
    TITLE "25:cjc160_1083"
    INDEX 01 05:47:19
  TRACK 303 AUDIO
    TITLE "0:"
    INDEX 01 05:48:69
  TRACK 304 AUDIO
    TITLE "25:cjc160_1084"
    INDEX 01 05:49:45
  TRACK 305 AUDIO
    TITLE "0:"
    INDEX 01 05:51:11
  TRACK 306 AUDIO
    TITLE "24:cjc160_1085"
    INDEX 01 05:52:24
  TRACK 307 AUDIO
    TITLE "0:"
    INDEX 01 05:53:59
  TRACK 308 AUDIO
    TITLE "25:cjc160_1086"
    INDEX 01 05:54:35
  TRACK 309 AUDIO
    TITLE "0:"
    INDEX 01 05:56:39
  TRACK 310 AUDIO
    TITLE "25:cjc160_1087"
    INDEX 01 05:57:15
  TRACK 311 AUDIO
    TITLE "0:"
    INDEX 01 05:59:26
  TRACK 312 AUDIO
    TITLE "25:cjc160_1088"
    INDEX 01 05:59:75
  TRACK 313 AUDIO
    TITLE "0:"
    INDEX 01 06:02:11
  TRACK 314 AUDIO
    TITLE "24:cjc160_1089"
    INDEX 01 06:03:22
  TRACK 315 AUDIO
    TITLE "0:"
    INDEX 01 06:04:37
  TRACK 316 AUDIO
    TITLE "25:cjc160_1090"
    INDEX 01 06:05:13
  TRACK 317 AUDIO
    TITLE "0:"
    INDEX 01 06:06:57
  TRACK 318 AUDIO
    TITLE "25:cjc160_1091"
    INDEX 01 06:07:33
  TRACK 319 AUDIO
    TITLE "0:"
    INDEX 01 06:09:11
  TRACK 320 AUDIO
    TITLE "25:cjc160_1092"
    INDEX 01 06:09:60
  TRACK 321 AUDIO
    TITLE "0:"
    INDEX 01 06:11:55
  TRACK 322 AUDIO
    TITLE "24:cjc160_1093"
    INDEX 01 06:12:66
  TRACK 323 AUDIO
    TITLE "0:"
    INDEX 01 06:13:75
  TRACK 324 AUDIO
    TITLE "25:cjc160_1094"
    INDEX 01 06:14:51
  TRACK 325 AUDIO
    TITLE "0:"
    INDEX 01 06:16:21
  TRACK 326 AUDIO
    TITLE "25:cjc160_1095"
    INDEX 01 06:16:72
  TRACK 327 AUDIO
    TITLE "0:"
    INDEX 01 06:18:53
  TRACK 328 AUDIO
    TITLE "25:cjc160_1096"
    INDEX 01 06:19:31
  TRACK 329 AUDIO
    TITLE "0:"
    INDEX 01 06:20:73
  TRACK 330 AUDIO
    TITLE "24:cjc160_1097"
    INDEX 01 06:22:13
  TRACK 331 AUDIO
    TITLE "0:"
    INDEX 01 06:23:30
  TRACK 332 AUDIO
    TITLE "25:cjc160_1098"
    INDEX 01 06:24:08
  TRACK 333 AUDIO
    TITLE "0:"
    INDEX 01 06:25:67
  TRACK 334 AUDIO
    TITLE "25:cjc160_1099"
    INDEX 01 06:26:43
  TRACK 335 AUDIO
    TITLE "0:"
    INDEX 01 06:28:45
  TRACK 336 AUDIO
    TITLE "25:cjc160_1100"
    INDEX 01 06:29:19
  TRACK 337 AUDIO
    TITLE "0:"
    INDEX 01 06:31:14
  TRACK 338 AUDIO
    TITLE "24:cjc160_1101"
    INDEX 01 06:32:25
  TRACK 339 AUDIO
    TITLE "0:"
    INDEX 01 06:33:29
  TRACK 340 AUDIO
    TITLE "25:cjc160_1102"
    INDEX 01 06:34:05
  TRACK 341 AUDIO
    TITLE "0:"
    INDEX 01 06:35:51
  TRACK 342 AUDIO
    TITLE "25:cjc160_1103"
    INDEX 01 06:36:27
  TRACK 343 AUDIO
    TITLE "0:"
    INDEX 01 06:37:72
  TRACK 344 AUDIO
    TITLE "25:cjc160_1104"
    INDEX 01 06:38:48
  TRACK 345 AUDIO
    TITLE "0:"
    INDEX 01 06:40:29
  TRACK 346 AUDIO
    TITLE "24:cjc160_1105"
    INDEX 01 06:41:42
  TRACK 347 AUDIO
    TITLE "0:"
    INDEX 01 06:42:45
  TRACK 348 AUDIO
    TITLE "25:cjc160_1106"
    INDEX 01 06:43:23
  TRACK 349 AUDIO
    TITLE "0:"
    INDEX 01 06:45:22
  TRACK 350 AUDIO
    TITLE "25:cjc160_1107"
    INDEX 01 06:45:73
  TRACK 351 AUDIO
    TITLE "0:"
    INDEX 01 06:47:33
  TRACK 352 AUDIO
    TITLE "25:cjc160_1108"
    INDEX 01 06:48:07
  TRACK 353 AUDIO
    TITLE "0:"
    INDEX 01 06:49:67
  TRACK 354 AUDIO
    TITLE "24:cjc160_1109"
    INDEX 01 06:51:05
  TRACK 355 AUDIO
    TITLE "0:"
    INDEX 01 06:52:13
  TRACK 356 AUDIO
    TITLE "25:cjc160_1110"
    INDEX 01 06:52:63
  TRACK 357 AUDIO
    TITLE "0:"
    INDEX 01 06:54:35
  TRACK 358 AUDIO
    TITLE "25:cjc160_1111"
    INDEX 01 06:55:11
  TRACK 359 AUDIO
    TITLE "0:"
    INDEX 01 06:56:49
  TRACK 360 AUDIO
    TITLE "25:cjc160_1112"
    INDEX 01 06:57:27
  TRACK 361 AUDIO
    TITLE "0:"
    INDEX 01 06:58:74
  TRACK 362 AUDIO
    TITLE "24:cjc160_1113"
    INDEX 01 07:00:08
  TRACK 363 AUDIO
    TITLE "0:"
    INDEX 01 07:01:27
  TRACK 364 AUDIO
    TITLE "25:cjc160_1114"
    INDEX 01 07:01:74
  TRACK 365 AUDIO
    TITLE "0:"
    INDEX 01 07:03:69
  TRACK 366 AUDIO
    TITLE "25:cjc160_1115"
    INDEX 01 07:04:45
  TRACK 367 AUDIO
    TITLE "0:"
    INDEX 01 07:06:07
  TRACK 368 AUDIO
    TITLE "25:cjc160_1116"
    INDEX 01 07:06:58
  TRACK 369 AUDIO
    TITLE "0:"
    INDEX 01 07:08:45
  TRACK 370 AUDIO
    TITLE "24:cjc160_1117"
    INDEX 01 07:09:58
  TRACK 371 AUDIO
    TITLE "0:"
    INDEX 01 07:11:06
  TRACK 372 AUDIO
    TITLE "25:cjc160_1118"
    INDEX 01 07:11:59
  TRACK 373 AUDIO
    TITLE "0:"
    INDEX 01 07:13:38
  TRACK 374 AUDIO
    TITLE "25:cjc160_1119"
    INDEX 01 07:14:16
  TRACK 375 AUDIO
    TITLE "0:"
    INDEX 01 07:16:19
  TRACK 376 AUDIO
    TITLE "25:cjc160_1120"
    INDEX 01 07:16:70
  TRACK 377 AUDIO
    TITLE "0:"
    INDEX 01 07:18:65
  TRACK 378 AUDIO
    TITLE "24:cjc160_1121"
    INDEX 01 07:20:05
  TRACK 379 AUDIO
    TITLE "0:"
    INDEX 01 07:21:20
  TRACK 380 AUDIO
    TITLE "25:cjc160_1122"
    INDEX 01 07:21:63
  TRACK 381 AUDIO
    TITLE "0:"
    INDEX 01 07:23:39
  TRACK 382 AUDIO
    TITLE "25:cjc160_1123"
    INDEX 01 07:24:13
  TRACK 383 AUDIO
    TITLE "0:"
    INDEX 01 07:26:02
  TRACK 384 AUDIO
    TITLE "25:cjc160_1124"
    INDEX 01 07:26:55
  TRACK 385 AUDIO
    TITLE "0:"
    INDEX 01 07:28:55
  TRACK 386 AUDIO
    TITLE "24:cjc160_1125"
    INDEX 01 07:29:69
  TRACK 387 AUDIO
    TITLE "0:"
    INDEX 01 07:31:15
  TRACK 388 AUDIO
    TITLE "25:cjc160_1126"
    INDEX 01 07:31:67
  TRACK 389 AUDIO
    TITLE "0:"
    INDEX 01 07:33:39
  TRACK 390 AUDIO
    TITLE "25:cjc160_1127"
    INDEX 01 07:34:17
  TRACK 391 AUDIO
    TITLE "0:"
    INDEX 01 07:35:75
  TRACK 392 AUDIO
    TITLE "25:cjc160_1128"
    INDEX 01 07:36:53
  TRACK 393 AUDIO
    TITLE "0:"
    INDEX 01 07:38:28
  TRACK 394 AUDIO
    TITLE "24:cjc160_1129"
    INDEX 01 07:39:41
  TRACK 395 AUDIO
    TITLE "0:"
    INDEX 01 07:40:62
  TRACK 396 AUDIO
    TITLE "25:cjc160_1130"
    INDEX 01 07:41:36
  TRACK 397 AUDIO
    TITLE "0:"
    INDEX 01 07:43:10
  TRACK 398 AUDIO
    TITLE "25:cjc160_1131"
    INDEX 01 07:43:59
  TRACK 399 AUDIO
    TITLE "0:"
    INDEX 01 07:45:40
  TRACK 400 AUDIO
    TITLE "25:cjc160_1132"
    INDEX 01 07:46:16
  TRACK 401 AUDIO
    TITLE "0:"
    INDEX 01 07:48:46
  TRACK 402 AUDIO
    TITLE "24:cjc160_1133"
    INDEX 01 07:49:59
  TRACK 403 AUDIO
    TITLE "0:"
    INDEX 01 07:51:04
  TRACK 404 AUDIO
    TITLE "25:cjc160_1134"
    INDEX 01 07:51:52
  TRACK 405 AUDIO
    TITLE "0:"
    INDEX 01 07:53:14
  TRACK 406 AUDIO
    TITLE "25:cjc160_1135"
    INDEX 01 07:53:65
  TRACK 407 AUDIO
    TITLE "0:"
    INDEX 01 07:55:37
  TRACK 408 AUDIO
    TITLE "25:cjc160_1136"
    INDEX 01 07:56:13
  TRACK 409 AUDIO
    TITLE "0:"
    INDEX 01 07:57:75
  TRACK 410 AUDIO
    TITLE "24:cjc160_1137"
    INDEX 01 07:59:13
  TRACK 411 AUDIO
    TITLE "0:"
    INDEX 01 08:00:34
  TRACK 412 AUDIO
    TITLE "25:cjc160_1138"
    INDEX 01 08:01:08
  TRACK 413 AUDIO
    TITLE "0:"
    INDEX 01 08:02:64
  TRACK 414 AUDIO
    TITLE "25:cjc160_1139"
    INDEX 01 08:03:42
  TRACK 415 AUDIO
    TITLE "0:"
    INDEX 01 08:05:17
  TRACK 416 AUDIO
    TITLE "25:cjc160_1140"
    INDEX 01 08:05:58
  TRACK 417 AUDIO
    TITLE "0:"
    INDEX 01 08:07:30
  TRACK 418 AUDIO
    TITLE "24:cjc160_1141"
    INDEX 01 08:08:45
  TRACK 419 AUDIO
    TITLE "0:"
    INDEX 01 08:09:48
  TRACK 420 AUDIO
    TITLE "25:cjc160_1142"
    INDEX 01 08:10:22
  TRACK 421 AUDIO
    TITLE "0:"
    INDEX 01 08:11:63
  TRACK 422 AUDIO
    TITLE "25:cjc160_1143"
    INDEX 01 08:12:37
  TRACK 423 AUDIO
    TITLE "0:"
    INDEX 01 08:13:64
  TRACK 424 AUDIO
    TITLE "25:cjc160_1144"
    INDEX 01 08:14:38
  TRACK 425 AUDIO
    TITLE "0:"
    INDEX 01 08:16:03
  TRACK 426 AUDIO
    TITLE "24:cjc160_1145"
    INDEX 01 08:17:15
  TRACK 427 AUDIO
    TITLE "0:"
    INDEX 01 08:18:30
  TRACK 428 AUDIO
    TITLE "25:cjc160_1146"
    INDEX 01 08:19:06
  TRACK 429 AUDIO
    TITLE "0:"
    INDEX 01 08:20:52
  TRACK 430 AUDIO
    TITLE "25:cjc160_1147"
    INDEX 01 08:21:32
  TRACK 431 AUDIO
    TITLE "0:"
    INDEX 01 08:22:67
  TRACK 432 AUDIO
    TITLE "25:cjc160_1148"
    INDEX 01 08:23:43
  TRACK 433 AUDIO
    TITLE "0:"
    INDEX 01 08:25:08
  TRACK 434 AUDIO
    TITLE "24:cjc160_1149"
    INDEX 01 08:26:21
  TRACK 435 AUDIO
    TITLE "0:"
    INDEX 01 08:27:33
  TRACK 436 AUDIO
    TITLE "25:cjc160_1150"
    INDEX 01 08:28:07
  TRACK 437 AUDIO
    TITLE "0:"
    INDEX 01 08:29:39
  TRACK 438 AUDIO
    TITLE "25:cjc160_1151"
    INDEX 01 08:30:15
  TRACK 439 AUDIO
    TITLE "0:"
    INDEX 01 08:31:64
  TRACK 440 AUDIO
    TITLE "25:cjc160_1152"
    INDEX 01 08:32:40
  TRACK 441 AUDIO
    TITLE "0:"
    INDEX 01 08:34:54
  TRACK 442 AUDIO
    TITLE "24:cjc160_1153"
    INDEX 01 08:35:67
  TRACK 443 AUDIO
    TITLE "0:"
    INDEX 01 08:37:02
  TRACK 444 AUDIO
    TITLE "25:cjc160_1154"
    INDEX 01 08:37:51
  TRACK 445 AUDIO
    TITLE "0:"
    INDEX 01 08:39:28
  TRACK 446 AUDIO
    TITLE "25:cjc160_1155"
    INDEX 01 08:40:02
  TRACK 447 AUDIO
    TITLE "0:"
    INDEX 01 08:41:46
  TRACK 448 AUDIO
    TITLE "25:cjc160_1156"
    INDEX 01 08:42:22
  TRACK 449 AUDIO
    TITLE "0:"
    INDEX 01 08:43:69
  TRACK 450 AUDIO
    TITLE "24:cjc160_1157"
    INDEX 01 08:45:11
  TRACK 451 AUDIO
    TITLE "0:"
    INDEX 01 08:46:08
  TRACK 452 AUDIO
    TITLE "25:cjc160_1158"
    INDEX 01 08:46:71
  TRACK 453 AUDIO
    TITLE "0:"
    INDEX 01 08:48:35
  TRACK 454 AUDIO
    TITLE "25:cjc160_1159"
    INDEX 01 08:49:11
  TRACK 455 AUDIO
    TITLE "0:"
    INDEX 01 08:50:57
  TRACK 456 AUDIO
    TITLE "25:cjc160_1160"
    INDEX 01 08:51:33
  TRACK 457 AUDIO
    TITLE "0:"
    INDEX 01 08:53:24
  TRACK 458 AUDIO
    TITLE "24:cjc160_1161"
    INDEX 01 08:54:37
  TRACK 459 AUDIO
    TITLE "0:"
    INDEX 01 08:55:54
  TRACK 460 AUDIO
    TITLE "25:cjc160_1162"
    INDEX 01 08:56:30
  TRACK 461 AUDIO
    TITLE "0:"
    INDEX 01 08:58:39
  TRACK 462 AUDIO
    TITLE "25:cjc160_1163"
    INDEX 01 08:59:13
  TRACK 463 AUDIO
    TITLE "0:"
    INDEX 01 09:00:44
  TRACK 464 AUDIO
    TITLE "25:cjc160_1164"
    INDEX 01 09:01:20
  TRACK 465 AUDIO
    TITLE "0:"
    INDEX 01 09:02:55
  TRACK 466 AUDIO
    TITLE "24:cjc160_1165"
    INDEX 01 09:03:66
  TRACK 467 AUDIO
    TITLE "0:"
    INDEX 01 09:05:06
  TRACK 468 AUDIO
    TITLE "25:cjc160_1166"
    INDEX 01 09:05:55
  TRACK 469 AUDIO
    TITLE "0:"
    INDEX 01 09:07:30
  TRACK 470 AUDIO
    TITLE "25:cjc160_1167"
    INDEX 01 09:08:04
  TRACK 471 AUDIO
    TITLE "0:"
    INDEX 01 09:09:43
  TRACK 472 AUDIO
    TITLE "25:cjc160_1168"
    INDEX 01 09:10:19
  TRACK 473 AUDIO
    TITLE "0:"
    INDEX 01 09:11:53
  TRACK 474 AUDIO
    TITLE "24:cjc160_1169"
    INDEX 01 09:12:69
  TRACK 475 AUDIO
    TITLE "0:"
    INDEX 01 09:14:01
  TRACK 476 AUDIO
    TITLE "25:cjc160_1170"
    INDEX 01 09:14:50
  TRACK 477 AUDIO
    TITLE "0:"
    INDEX 01 09:16:27
  TRACK 478 AUDIO
    TITLE "25:cjc160_1171"
    INDEX 01 09:17:03
  TRACK 479 AUDIO
    TITLE "0:"
    INDEX 01 09:18:55
  TRACK 480 AUDIO
    TITLE "25:cjc160_1172"
    INDEX 01 09:19:33
  TRACK 481 AUDIO
    TITLE "0:"
    INDEX 01 09:21:17
  TRACK 482 AUDIO
    TITLE "24:cjc160_1173"
    INDEX 01 09:22:30
  TRACK 483 AUDIO
    TITLE "0:"
    INDEX 01 09:23:45
  TRACK 484 AUDIO
    TITLE "25:cjc160_1174"
    INDEX 01 09:24:21
  TRACK 485 AUDIO
    TITLE "0:"
    INDEX 01 09:25:57
  TRACK 486 AUDIO
    TITLE "25:cjc160_1175"
    INDEX 01 09:26:35
  TRACK 487 AUDIO
    TITLE "0:"
    INDEX 01 09:28:03
  TRACK 488 AUDIO
    TITLE "25:cjc160_1176"
    INDEX 01 09:28:52
  TRACK 489 AUDIO
    TITLE "0:"
    INDEX 01 09:30:18
  TRACK 490 AUDIO
    TITLE "24:cjc160_1177"
    INDEX 01 09:31:29
  TRACK 491 AUDIO
    TITLE "0:"
    INDEX 01 09:32:38
  TRACK 492 AUDIO
    TITLE "25:cjc160_1178"
    INDEX 01 09:33:12
  TRACK 493 AUDIO
    TITLE "0:"
    INDEX 01 09:35:19
  TRACK 494 AUDIO
    TITLE "25:cjc160_1179"
    INDEX 01 09:35:70
  TRACK 495 AUDIO
    TITLE "0:"
    INDEX 01 09:37:53
  TRACK 496 AUDIO
    TITLE "25:cjc160_1180"
    INDEX 01 09:38:27
  TRACK 497 AUDIO
    TITLE "0:"
    INDEX 01 09:40:06
  TRACK 498 AUDIO
    TITLE "24:cjc160_1181"
    INDEX 01 09:41:19
  TRACK 499 AUDIO
    TITLE "0:"
    INDEX 01 09:42:27
  TRACK 500 AUDIO
    TITLE "25:cjc160_1182"
    INDEX 01 09:43:03
  TRACK 501 AUDIO
    TITLE "0:"
    INDEX 01 09:44:51
  TRACK 502 AUDIO
    TITLE "25:cjc160_1183"
    INDEX 01 09:45:25
  TRACK 503 AUDIO
    TITLE "0:"
    INDEX 01 09:46:58
  TRACK 504 AUDIO
    TITLE "25:cjc160_1184"
    INDEX 01 09:47:45
  TRACK 505 AUDIO
    TITLE "0:"
    INDEX 01 09:49:15
  TRACK 506 AUDIO
    TITLE "24:cjc160_1185"
    INDEX 01 09:50:28
  TRACK 507 AUDIO
    TITLE "0:"
    INDEX 01 09:51:43
  TRACK 508 AUDIO
    TITLE "25:cjc160_1186"
    INDEX 01 09:52:19
  TRACK 509 AUDIO
    TITLE "0:"
    INDEX 01 09:53:68
  TRACK 510 AUDIO
    TITLE "25:cjc160_1187"
    INDEX 01 09:54:34
  TRACK 511 AUDIO
    TITLE "0:"
    INDEX 01 09:56:11
  TRACK 512 AUDIO
    TITLE "25:cjc160_1188"
    INDEX 01 09:56:60
  TRACK 513 AUDIO
    TITLE "0:"
    INDEX 01 09:58:45
  TRACK 514 AUDIO
    TITLE "24:cjc160_1189"
    INDEX 01 09:59:58
  TRACK 515 AUDIO
    TITLE "0:"
    INDEX 01 10:00:70
  TRACK 516 AUDIO
    TITLE "25:cjc160_1190"
    INDEX 01 10:01:47
  TRACK 517 AUDIO
    TITLE "0:"
    INDEX 01 10:03:21
  TRACK 518 AUDIO
    TITLE "25:cjc160_1191"
    INDEX 01 10:03:70
  TRACK 519 AUDIO
    TITLE "0:"
    INDEX 01 10:05:61
  TRACK 520 AUDIO
    TITLE "25:cjc160_1192"
    INDEX 01 10:06:37
  TRACK 521 AUDIO
    TITLE "0:"
    INDEX 01 10:08:01
  TRACK 522 AUDIO
    TITLE "24:cjc160_1193"
    INDEX 01 10:09:12
  TRACK 523 AUDIO
    TITLE "0:"
    INDEX 01 10:10:25
  TRACK 524 AUDIO
    TITLE "25:cjc160_1194"
    INDEX 01 10:11:03
  TRACK 525 AUDIO
    TITLE "0:"
    INDEX 01 10:12:57
  TRACK 526 AUDIO
    TITLE "25:cjc160_1195"
    INDEX 01 10:13:33
  TRACK 527 AUDIO
    TITLE "0:"
    INDEX 01 10:15:04
  TRACK 528 AUDIO
    TITLE "25:cjc160_1196"
    INDEX 01 10:15:55
  TRACK 529 AUDIO
    TITLE "0:"
    INDEX 01 10:17:31
  TRACK 530 AUDIO
    TITLE "24:cjc160_1197"
    INDEX 01 10:18:46
  TRACK 531 AUDIO
    TITLE "0:"
    INDEX 01 10:19:59
  TRACK 532 AUDIO
    TITLE "25:cjc160_1198"
    INDEX 01 10:20:33
  TRACK 533 AUDIO
    TITLE "0:"
    INDEX 01 10:22:14
  TRACK 534 AUDIO
    TITLE "25:cjc160_1199"
    INDEX 01 10:22:67
  TRACK 535 AUDIO
    TITLE "0:"
    INDEX 01 10:24:35
  TRACK 536 AUDIO
    TITLE "25:cjc160_1200"
    INDEX 01 10:25:11
  TRACK 537 AUDIO
    TITLE "0:"
    INDEX 01 10:26:53
  TRACK 538 AUDIO
    TITLE "24:cjc160_1201"
    INDEX 01 10:27:66
  TRACK 539 AUDIO
    TITLE "0:"
    INDEX 01 10:29:05
  TRACK 540 AUDIO
    TITLE "25:cjc160_1202"
    INDEX 01 10:29:57
  TRACK 541 AUDIO
    TITLE "0:"
    INDEX 01 10:31:33
  TRACK 542 AUDIO
    TITLE "25:cjc160_1203"
    INDEX 01 10:32:09
  TRACK 543 AUDIO
    TITLE "0:"
    INDEX 01 10:33:67
  TRACK 544 AUDIO
    TITLE "25:cjc160_1204"
    INDEX 01 10:34:45
  TRACK 545 AUDIO
    TITLE "0:"
    INDEX 01 10:36:26
  TRACK 546 AUDIO
    TITLE "24:cjc160_1205"
    INDEX 01 10:37:39
  TRACK 547 AUDIO
    TITLE "0:"
    INDEX 01 10:38:60
  TRACK 548 AUDIO
    TITLE "25:cjc160_1206"
    INDEX 01 10:39:36
  TRACK 549 AUDIO
    TITLE "0:"
    INDEX 01 10:41:16
  TRACK 550 AUDIO
    TITLE "25:cjc160_1207"
    INDEX 01 10:41:69
  TRACK 551 AUDIO
    TITLE "0:"
    INDEX 01 10:44:24
  TRACK 552 AUDIO
    TITLE "25:cjc160_1208"
    INDEX 01 10:44:73
  TRACK 553 AUDIO
    TITLE "0:"
    INDEX 01 10:47:20
